<svg xmlns="http://www.w3.org/2000/svg" width="16" height="13" viewBox="0 0 16 13">
    <path fill="#F7F9FC" fill-rule="evenodd" d="M10.996 12.5c.755 0 1.668-.443 2.146-1.04l2.472-3.094c.227-.29.386-.647.386-1.022 0-.205-.042-.4-.126-.58-.251-.545-.821-.81-1.391-.81h-1.61V4.592c0-1.048-.846-1.91-1.877-1.91h-4.56V2.41C6.437 1.361 5.59.5 4.56.5H1.877C.847.5 0 1.36 0 2.41v8.18c0 1.05.847 1.91 1.877 1.91h9.12zM1.073 9.679v-7.27c0-.452.36-.818.804-.818H4.56c.445 0 .805.366.805.818v.546c0 .451.36.818.805.818h4.827c.445 0 .805.366.805.818v1.364H5.364c-.763 0-1.66.434-2.146 1.04L1.073 9.678zm9.923 1.73H1.877c-.184 0-.444-.06-.444-.298 0-.128.076-.239.151-.341l2.464-3.094c.285-.35.872-.63 1.316-.63h9.119c.184 0 .444.06.444.298 0 .128-.075.238-.15.332l-2.465 3.094c-.285.358-.871.64-1.316.64z"/>
</svg>
