<svg xmlns="http://www.w3.org/2000/svg" width="32" height="32" viewBox="0 0 32 32">
    <g fill="none" fill-rule="evenodd">
        <path d="M4 4h24v24H4z"/>
        <path fill="#F7F9FC" d="M26.81 32c.334 0 .616-.137.845-.41.23-.275.345-.602.345-.983V1.393c0-.381-.115-.708-.345-.982C27.425.137 27.144 0 26.81 0H5.222C4.888 0 4.6.137 4.36.41a1.44 1.44 0 0 0-.36.983v29.214c0 .381.12.708.36.982s.528.411.862.411h21.587zm-1.223-2.786H6.413V2.786h19.174v26.428zm-3.665-14.143c.334 0 .621-.136.861-.41.24-.274.36-.601.36-.982V7.07c0-.38-.12-.708-.36-.982s-.527-.41-.861-.41H10.11c-.335 0-.622.136-.862.41a1.44 1.44 0 0 0-.36.982v6.608c0 .38.12.708.36.982s.527.41.862.41h11.812zm-1.222-2.75h-9.4V8.464h9.4v3.857zM11.08 25.18c.335 0 .622-.137.863-.411.24-.274.36-.601.36-.982v-.822h.72c.335 0 .622-.137.862-.41.24-.274.36-.602.36-.983 0-.38-.12-.702-.36-.964a1.13 1.13 0 0 0-.862-.393h-.72v-.857c0-.38-.12-.702-.36-.964A1.13 1.13 0 0 0 11.08 18a1.13 1.13 0 0 0-.862.393c-.24.262-.36.583-.36.964v.857h-.72a1.13 1.13 0 0 0-.862.393c-.24.262-.36.583-.36.964s.12.709.36.983c.24.273.527.41.861.41h.721v.822c0 .38.12.708.36.982s.528.41.862.41zm11.782-4.429c.334 0 .621-.137.861-.41.24-.275.36-.602.36-.983 0-.38-.12-.702-.36-.964a1.13 1.13 0 0 0-.861-.393h-3.885a1.13 1.13 0 0 0-.862.393c-.24.262-.36.583-.36.964s.12.708.36.982.527.411.862.411h3.885zm0 5.964c.334 0 .621-.137.861-.41.24-.274.36-.602.36-.983 0-.38-.12-.708-.36-.982s-.527-.41-.861-.41h-3.885c-.335 0-.622.136-.862.41a1.44 1.44 0 0 0-.36.982c0 .381.12.709.36.983.24.273.527.41.862.41h3.885z"/>
    </g>
</svg>
